<?xml version="1.0" standalone="no"?>
<!DOCTYPE svg PUBLIC "-//W3C//DTD SVG 20010904//EN"
 "http://www.w3.org/TR/2001/REC-SVG-20010904/DTD/svg10.dtd">
<svg version="1.0" xmlns="http://www.w3.org/2000/svg"
 width="351.000000pt" height="105.000000pt" viewBox="0 0 351.000000 105.000000"
 preserveAspectRatio="xMidYMid meet">
<metadata>
Created by potrace 1.16, written by Peter Selinger 2001-2019
</metadata>
<g transform="translate(0.000000,105.000000) scale(0.100000,-0.100000)"
fill="#000000" stroke="none">
<path d="M660 985 l0 -65 50 0 50 0 0 -315 0 -315 60 0 60 0 0 380 0 380 -110
0 -110 0 0 -65z"/>
<path d="M186 958 c-64 -212 -186 -643 -186 -655 0 -9 17 -13 63 -13 l62 0 19
65 19 65 185 -2 186 -3 14 -62 13 -63 66 0 c48 0 64 3 61 13 -3 6 -40 175 -84
374 l-79 363 -157 0 -157 0 -25 -82z m238 -55 c8 -27 76 -335 76 -345 0 -4
-68 -8 -151 -8 -139 0 -150 1 -145 18 3 9 26 87 51 172 25 85 47 161 50 168 3
7 24 12 59 12 43 0 56 -4 60 -17z"/>
<path d="M950 975 l0 -65 50 0 50 0 0 -310 0 -310 60 0 60 0 0 110 c0 107 1
110 23 110 17 -1 35 -23 87 -110 l65 -109 73 -1 c39 0 72 3 72 6 0 4 -34 64
-77 133 -42 69 -76 130 -76 136 0 5 28 54 62 107 33 54 61 100 61 103 0 3 -33
5 -74 5 l-73 0 -45 -72 c-35 -58 -50 -74 -71 -76 l-27 -3 0 205 0 206 -110 0
-110 0 0 -65z"/>
<path d="M2020 795 c-16 -9 -56 -14 -112 -15 l-88 0 0 -65 0 -65 50 0 50 0 0
-180 0 -180 65 0 65 0 0 189 0 189 29 10 c53 18 109 -8 135 -63 12 -25 16 -66
16 -179 l0 -146 61 0 61 0 -4 185 c-3 176 -2 185 17 194 41 19 57 20 88 7 60
-25 71 -48 78 -155 9 -152 58 -216 173 -228 l56 -6 0 67 c0 66 0 66 -28 66
-15 0 -38 7 -50 16 -19 13 -22 24 -22 88 0 132 -39 211 -129 259 -66 36 -158
38 -222 4 l-44 -24 -44 24 c-52 27 -160 32 -201 8z"/>
<path d="M1530 715 l0 -65 50 0 50 0 0 -180 0 -180 60 0 60 0 0 245 0 245
-110 0 -110 0 0 -65z"/>
<path d="M2730 715 l0 -65 50 0 50 0 0 -180 0 -180 60 0 60 0 0 245 0 245
-110 0 -110 0 0 -65z"/>
<path d="M3193 758 c-59 -13 -136 -84 -157 -145 -42 -122 7 -248 117 -305 50
-25 149 -28 193 -5 30 15 30 15 49 -19 10 -19 23 -34 30 -34 6 0 28 18 50 40
35 36 37 42 27 65 -8 17 -12 93 -12 220 l0 195 -127 -1 c-71 -1 -147 -5 -170
-11z m177 -224 c0 -102 -2 -115 -15 -104 -12 10 -20 9 -40 -4 -13 -9 -43 -16
-65 -16 -96 0 -147 132 -76 199 30 28 67 39 139 40 l57 1 0 -116z"/>
</g>
</svg>
